<svg width="112" height="32" viewBox="0 0 112 32" fill="none" xmlns="http://www.w3.org/2000/svg">
<path d="M23.1125 25.4738C21.7201 25.4738 20.5121 25.1885 19.4887 24.6181C18.4654 24.0309 17.6685 23.234 17.098 22.2274C16.5444 21.204 16.2676 20.0381 16.2676 18.7295C16.2676 17.2531 16.5612 15.9948 17.1484 14.9547C17.7523 13.8977 18.5325 13.0924 19.4887 12.5388C20.445 11.9684 21.46 11.6832 22.5337 11.6832C23.3558 11.6832 24.1359 11.851 24.8741 12.1865C25.6123 12.5053 26.2666 12.9582 26.837 13.5454C27.4242 14.1158 27.8856 14.7953 28.2211 15.5838C28.5566 16.3555 28.7328 17.2028 28.7496 18.1255C28.7328 18.461 28.5986 18.7379 28.3469 18.956C28.0953 19.174 27.8017 19.2831 27.4661 19.2831H17.6768L17.0729 17.1441H26.535L26.0569 17.597V16.9679C26.0233 16.3807 25.8304 15.869 25.4781 15.4328C25.1258 14.9798 24.6896 14.6359 24.1695 14.401C23.6494 14.1494 23.1042 14.0236 22.5337 14.0236C22.0304 14.0236 21.5439 14.1074 21.0742 14.2752C20.6212 14.4262 20.2101 14.6779 19.8411 15.0302C19.4887 15.3825 19.2035 15.8522 18.9854 16.4394C18.7841 17.0098 18.6835 17.7229 18.6835 18.5785C18.6835 19.5012 18.8764 20.3065 19.2623 20.9943C19.6481 21.6822 20.1682 22.219 20.8225 22.6049C21.4768 22.974 22.1982 23.1586 22.9867 23.1586C23.6075 23.1586 24.1192 23.0998 24.5218 22.9824C24.9244 22.8482 25.26 22.6888 25.5284 22.5043C25.7968 22.3197 26.0317 22.1436 26.233 21.9758C26.4847 21.8248 26.7363 21.7493 26.988 21.7493C27.29 21.7493 27.5416 21.8583 27.743 22.0764C27.9443 22.2778 28.0449 22.521 28.0449 22.8062C28.0449 23.1753 27.8604 23.5109 27.4913 23.8128C27.0383 24.249 26.4092 24.6349 25.6039 24.9705C24.8154 25.306 23.9849 25.4738 23.1125 25.4738ZM30.3106 23.1586C30.1596 22.9237 30.0925 22.6552 30.1093 22.3533C30.1261 22.0345 30.3022 21.7661 30.6377 21.548C30.8726 21.397 31.1159 21.3383 31.3675 21.3718C31.636 21.3886 31.8876 21.5144 32.1225 21.7493C32.5922 22.2694 33.1123 22.6804 33.6827 22.9824C34.2699 23.2844 34.9746 23.4354 35.7966 23.4354C36.1322 23.4186 36.4761 23.3683 36.8284 23.2844C37.1807 23.1837 37.4827 23.0159 37.7344 22.7811C37.986 22.5294 38.1118 22.1687 38.1118 21.699C38.1118 21.2795 37.9776 20.944 37.7092 20.6924C37.4408 20.4407 37.0884 20.2394 36.6522 20.0884C36.216 19.9206 35.7463 19.7696 35.243 19.6354C34.7061 19.4844 34.1609 19.3167 33.6072 19.1321C33.0704 18.9476 32.5839 18.7127 32.1477 18.4275C31.7115 18.1255 31.3508 17.7396 31.0656 17.2699C30.7971 16.8001 30.6629 16.2213 30.6629 15.5335C30.6629 14.745 30.881 14.0655 31.3172 13.4951C31.7702 12.9247 32.349 12.4801 33.0536 12.1613C33.775 11.8426 34.5551 11.6832 35.394 11.6832C35.8805 11.6832 36.3922 11.7503 36.9291 11.8845C37.4659 12.0019 37.986 12.1949 38.4893 12.4633C38.9926 12.7317 39.4288 13.0841 39.7979 13.5203C39.9657 13.7384 40.0579 13.9984 40.0747 14.3004C40.1083 14.6024 39.9741 14.8708 39.6721 15.1057C39.4708 15.2734 39.2275 15.3489 38.9423 15.3322C38.6571 15.3154 38.4222 15.2231 38.2377 15.0553C37.9189 14.6527 37.5079 14.3423 37.0046 14.1242C36.5013 13.8893 35.9308 13.7719 35.2933 13.7719C34.9746 13.7719 34.639 13.8222 34.2867 13.9229C33.9512 14.0068 33.666 14.1662 33.4311 14.401C33.1962 14.6359 33.0788 14.9798 33.0788 15.4328C33.0788 15.8522 33.213 16.1878 33.4814 16.4394C33.7666 16.6911 34.1357 16.9008 34.5887 17.0686C35.0417 17.2363 35.5366 17.3873 36.0734 17.5215C36.5935 17.6557 37.1052 17.8151 37.6085 17.9997C38.1286 18.1842 38.59 18.4275 38.9926 18.7295C39.412 19.0147 39.7476 19.3921 39.9992 19.8619C40.2677 20.3149 40.4019 20.8937 40.4019 21.5983C40.4019 22.4204 40.1586 23.125 39.6721 23.7122C39.2023 24.2826 38.5984 24.7188 37.8602 25.0208C37.1388 25.3228 36.3754 25.4738 35.5701 25.4738C34.6139 25.4738 33.6576 25.306 32.7013 24.9705C31.7618 24.6181 30.9649 24.0142 30.3106 23.1586ZM44.9704 23.9387C44.9704 24.3078 44.8529 24.6181 44.618 24.8698C44.3832 25.1047 44.0812 25.2221 43.7121 25.2221C43.3598 25.2221 43.0578 25.1047 42.8061 24.8698C42.5713 24.6181 42.4538 24.3078 42.4538 23.9387V13.1679C42.4538 12.7988 42.5713 12.4969 42.8061 12.262C43.0578 12.0103 43.3598 11.8845 43.7121 11.8845C44.0812 11.8845 44.3832 12.0103 44.618 12.262C44.8529 12.4969 44.9704 12.7988 44.9704 13.1679V23.9387ZM43.6869 10.2236C43.2004 10.2236 42.8481 10.1397 42.63 9.97195C42.4119 9.7874 42.3028 9.48542 42.3028 9.066V8.66335C42.3028 8.24393 42.4203 7.95034 42.6551 7.78257C42.89 7.6148 43.2423 7.53092 43.7121 7.53092C44.2154 7.53092 44.5761 7.62319 44.7942 7.80774C45.0123 7.9755 45.1213 8.26071 45.1213 8.66335V9.066C45.1213 9.5022 45.0039 9.80418 44.769 9.97195C44.5509 10.1397 44.1902 10.2236 43.6869 10.2236ZM53.3634 11.6832C54.0848 11.6832 54.7475 11.8006 55.3514 12.0355C55.9554 12.2704 56.4755 12.5724 56.9117 12.9415C57.3646 13.2938 57.717 13.6629 57.9686 14.0487C58.2203 14.4346 58.3461 14.7701 58.3461 15.0553L57.7673 15.0805V13.0673C57.7673 12.715 57.8847 12.413 58.1196 12.1613C58.3545 11.9097 58.6565 11.7838 59.0255 11.7838C59.3946 11.7838 59.6966 11.9097 59.9315 12.1613C60.1664 12.3962 60.2838 12.6982 60.2838 13.0673V24.1652C60.2838 25.5912 59.9818 26.7488 59.3779 27.638C58.7739 28.5439 57.9686 29.2066 56.962 29.626C55.9722 30.0454 54.8817 30.2552 53.6905 30.2552C53.2711 30.2552 52.7762 30.1964 52.2058 30.079C51.6353 29.9783 51.1069 29.8525 50.6203 29.7015C50.1506 29.5505 49.8234 29.3995 49.6389 29.2485C49.253 29.0472 48.993 28.8123 48.8588 28.5439C48.7413 28.2755 48.7413 28.0071 48.8588 27.7386C49.0265 27.3695 49.253 27.1431 49.5382 27.0592C49.8234 26.9753 50.1506 27.0004 50.5197 27.1347C50.6875 27.185 50.9475 27.2773 51.2998 27.4115C51.6521 27.5457 52.0464 27.6631 52.4826 27.7638C52.9188 27.8812 53.3298 27.94 53.7157 27.94C55.0578 27.94 56.0644 27.6296 56.7355 27.0088C57.4234 26.3881 57.7673 25.5409 57.7673 24.4671V22.2023L58.0441 22.3784C57.9938 22.7307 57.8344 23.0914 57.566 23.4605C57.3143 23.8128 56.9788 24.14 56.5594 24.442C56.1399 24.744 55.6534 24.9956 55.0998 25.1969C54.5629 25.3815 54.0093 25.4738 53.4389 25.4738C52.2477 25.4738 51.1824 25.1802 50.2429 24.593C49.3034 23.989 48.5568 23.1753 48.0032 22.1519C47.4495 21.1118 47.1727 19.9206 47.1727 18.5785C47.1727 17.2363 47.4495 16.0536 48.0032 15.0302C48.5568 13.99 49.295 13.1763 50.2177 12.5891C51.1572 11.9852 52.2058 11.6832 53.3634 11.6832ZM53.7408 13.9984C52.9188 13.9984 52.1974 14.1997 51.5766 14.6024C50.9559 15.005 50.4694 15.5503 50.117 16.2381C49.7647 16.926 49.5886 17.7061 49.5886 18.5785C49.5886 19.4509 49.7647 20.231 50.117 20.9188C50.4694 21.6067 50.9559 22.1519 51.5766 22.5546C52.1974 22.9572 52.9188 23.1586 53.7408 23.1586C54.5629 23.1586 55.2843 22.9656 55.9051 22.5797C56.5258 22.1771 57.0123 21.6319 57.3646 20.944C57.717 20.2394 57.8931 19.4509 57.8931 18.5785C57.8931 17.7061 57.717 16.926 57.3646 16.2381C57.0123 15.5335 56.5258 14.9882 55.9051 14.6024C55.2843 14.1997 54.5629 13.9984 53.7408 13.9984ZM70.0935 11.6832C71.2847 11.6832 72.2074 11.9348 72.8617 12.4381C73.516 12.9247 73.969 13.5874 74.2206 14.4262C74.4891 15.2483 74.6233 16.171 74.6233 17.1944V23.9387C74.6233 24.3078 74.4975 24.6181 74.2458 24.8698C74.0109 25.1047 73.7173 25.2221 73.365 25.2221C72.9959 25.2221 72.694 25.1047 72.4591 24.8698C72.2242 24.6181 72.1068 24.3078 72.1068 23.9387V17.2195C72.1068 16.6156 72.0229 16.0787 71.8551 15.609C71.6873 15.1224 71.3938 14.7366 70.9743 14.4514C70.5717 14.1494 70.0013 13.9984 69.2631 13.9984C68.5752 13.9984 67.9713 14.1494 67.4512 14.4514C66.9311 14.7366 66.5201 15.1224 66.2181 15.609C65.9329 16.0787 65.7903 16.6156 65.7903 17.2195V23.9387C65.7903 24.3078 65.6645 24.6181 65.4128 24.8698C65.1779 25.1047 64.8843 25.2221 64.532 25.2221C64.1629 25.2221 63.8609 25.1047 63.6261 24.8698C63.3912 24.6181 63.2738 24.3078 63.2738 23.9387V13.2686C63.2738 12.8995 63.3912 12.5975 63.6261 12.3626C63.8609 12.111 64.1629 11.9852 64.532 11.9852C64.8843 11.9852 65.1779 12.111 65.4128 12.3626C65.6645 12.5975 65.7903 12.8995 65.7903 13.2686V14.6779L65.3373 14.9295C65.4547 14.5604 65.6561 14.1913 65.9413 13.8222C66.2433 13.4364 66.604 13.0841 67.0234 12.7653C67.4428 12.4298 67.9126 12.1697 68.4326 11.9852C68.9527 11.7838 69.5064 11.6832 70.0935 11.6832Z" fill="#F6F6F6"/>
<path d="M94.1271 24.4945C94.1271 24.8636 94.0097 25.174 93.7748 25.4256C93.5399 25.6605 93.2379 25.7779 92.8688 25.7779C92.5165 25.7779 92.2145 25.6605 91.9629 25.4256C91.728 25.174 91.6106 24.8636 91.6106 24.4945V13.7238C91.6106 13.3547 91.728 13.0527 91.9629 12.8178C92.2145 12.5662 92.5165 12.4403 92.8688 12.4403C93.2379 12.4403 93.5399 12.5662 93.7748 12.8178C94.0097 13.0527 94.1271 13.3547 94.1271 13.7238V24.4945ZM92.8437 10.7794C92.3571 10.7794 92.0048 10.6955 91.7867 10.5278C91.5686 10.3432 91.4596 10.0412 91.4596 9.62182V9.21917C91.4596 8.79975 91.577 8.50616 91.8119 8.33839C92.0468 8.17062 92.3991 8.08674 92.8688 8.08674C93.3721 8.08674 93.7328 8.17901 93.9509 8.36356C94.169 8.53132 94.2781 8.81653 94.2781 9.21917V9.62182C94.2781 10.058 94.1607 10.36 93.9258 10.5278C93.7077 10.6955 93.347 10.7794 92.8437 10.7794ZM102.52 12.239C103.242 12.239 103.904 12.3564 104.508 12.5913C105.112 12.8262 105.632 13.1282 106.068 13.4973C106.521 13.8496 106.874 14.2187 107.125 14.6045C107.377 14.9904 107.503 15.3259 107.503 15.6112L106.924 15.6363V13.6231C106.924 13.2708 107.041 12.9688 107.276 12.7171C107.511 12.4655 107.813 12.3397 108.182 12.3397C108.551 12.3397 108.853 12.4655 109.088 12.7171C109.323 12.952 109.441 13.254 109.441 13.6231V24.721C109.441 26.147 109.139 27.3046 108.535 28.1938C107.931 29.0997 107.125 29.7624 106.119 30.1818C105.129 30.6013 104.038 30.811 102.847 30.811C102.428 30.811 101.933 30.7523 101.363 30.6348C100.792 30.5342 100.264 30.4083 99.7771 30.2573C99.3073 30.1064 98.9802 29.9554 98.7957 29.8044C98.4098 29.603 98.1497 29.3682 98.0155 29.0997C97.8981 28.8313 97.8981 28.5629 98.0155 28.2945C98.1833 27.9254 98.4098 27.6989 98.695 27.615C98.9802 27.5311 99.3073 27.5563 99.6764 27.6905C99.8442 27.7408 100.104 27.8331 100.457 27.9673C100.809 28.1015 101.203 28.219 101.639 28.3196C102.076 28.4371 102.487 28.4958 102.872 28.4958C104.215 28.4958 105.221 28.1854 105.892 27.5647C106.58 26.9439 106.924 26.0967 106.924 25.023V22.7581L107.201 22.9342C107.151 23.2866 106.991 23.6473 106.723 24.0164C106.471 24.3687 106.136 24.6958 105.716 24.9978C105.297 25.2998 104.81 25.5514 104.257 25.7528C103.72 25.9373 103.166 26.0296 102.596 26.0296C101.404 26.0296 100.339 25.736 99.3996 25.1488C98.4601 24.5448 97.7135 23.7311 97.1599 22.7078C96.6063 21.6676 96.3295 20.4764 96.3295 19.1343C96.3295 17.7921 96.6063 16.6094 97.1599 15.586C97.7135 14.5458 98.4517 13.7321 99.3745 13.145C100.314 12.541 101.363 12.239 102.52 12.239ZM102.898 14.5542C102.076 14.5542 101.354 14.7555 100.733 15.1582C100.113 15.5608 99.6261 16.1061 99.2738 16.7939C98.9215 17.4818 98.7453 18.2619 98.7453 19.1343C98.7453 20.0067 98.9215 20.7868 99.2738 21.4747C99.6261 22.1625 100.113 22.7078 100.733 23.1104C101.354 23.513 102.076 23.7144 102.898 23.7144C103.72 23.7144 104.441 23.5214 105.062 23.1356C105.683 22.7329 106.169 22.1877 106.521 21.4998C106.874 20.7952 107.05 20.0067 107.05 19.1343C107.05 18.2619 106.874 17.4818 106.521 16.7939C106.169 16.0893 105.683 15.544 105.062 15.1582C104.441 14.7555 103.72 14.5542 102.898 14.5542Z" fill="#F6F6F6"/>
<path d="M13.8754 10.5505L13.887 10.5655L13.8989 10.5802C14.4929 11.314 14.9479 12.1848 15.2526 13.2151L15.2571 13.2301L15.2618 13.245C15.5868 14.2726 15.7554 15.3918 15.7554 16.6126C15.7554 18.2616 15.4603 19.7218 14.8961 21.0175C14.3447 22.2653 13.5624 23.2233 12.5497 23.9363L12.5497 23.9363L12.5401 23.9432C11.618 24.6023 10.423 24.9798 8.85398 24.9798H2.02748C1.9951 24.9798 1.97403 24.9771 1.96225 24.9751C1.96111 24.9749 1.96003 24.9746 1.95901 24.9744C1.95612 24.9612 1.95255 24.9371 1.95255 24.8983L1.95255 8.32698C1.95255 8.29697 1.95472 8.27738 1.95642 8.26658C1.96672 8.25663 1.97345 8.25152 1.9763 8.2495C1.977 8.24934 1.97784 8.24917 1.97885 8.24898C1.98511 8.2478 2.00056 8.2455 2.02748 8.2455H8.85398C10.0129 8.2455 10.9768 8.4626 11.7837 8.85307C12.6179 9.25682 13.3098 9.81841 13.8754 10.5505Z" stroke="url(#paint0_linear_69_125)" stroke-width="3.33479"/>
<path d="M87.5926 6.65666C87.9931 6.65666 88.3845 6.80356 88.7669 7.09735C89.1674 7.39113 89.3677 7.78591 89.3677 8.28168C89.3677 8.63055 89.2402 8.97942 88.9853 9.3283L78.526 22.8793L78.1982 22.7691H87.3195C87.7929 22.7691 88.1843 22.916 88.4938 23.2098C88.8215 23.4852 88.9853 23.8616 88.9853 24.339C88.9853 24.7981 88.8215 25.1837 88.4938 25.4958C88.1843 25.7896 87.7929 25.9365 87.3195 25.9365H75.3308C74.8574 25.9365 74.4478 25.7713 74.1019 25.4407C73.756 25.0919 73.583 24.7155 73.583 24.3115C73.583 23.9626 73.7105 23.6137 73.9653 23.2649L84.452 9.65881L84.6978 9.82407H76.4232C75.9498 9.82407 75.5493 9.67717 75.2216 9.38338C74.9121 9.0896 74.7573 8.704 74.7573 8.22659C74.7573 7.74919 74.9121 7.37277 75.2216 7.09735C75.5493 6.80356 75.9498 6.65666 76.4232 6.65666H87.5926Z" fill="url(#paint1_linear_69_125)"/>
<defs>
<linearGradient id="paint0_linear_69_125" x1="5.2812" y1="8.73541" x2="15.0617" y2="25.6693" gradientUnits="userSpaceOnUse">
<stop stop-color="#00D92C"/>
<stop offset="0.34375" stop-color="#FF2828"/>
<stop offset="0.645833" stop-color="#B904FF"/>
<stop offset="0.994792" stop-color="#307FFC"/>
</linearGradient>
<linearGradient id="paint1_linear_69_125" x1="78.1846" y1="8.72913" x2="87.7739" y2="24.6472" gradientUnits="userSpaceOnUse">
<stop stop-color="#00D92C"/>
<stop offset="0.34375" stop-color="#FF2828"/>
<stop offset="0.645833" stop-color="#B904FF"/>
<stop offset="0.994792" stop-color="#307FFC"/>
</linearGradient>
</defs>
</svg>
